<svg width="159" height="27" viewBox="0 0 159 27" fill="none" xmlns="http://www.w3.org/2000/svg">
<path d="M3.38757 0H0V27H3.38757V0Z" fill="#393E46"/>
<path d="M23.7129 0H20.3254V27H23.7129V0Z" fill="#393E46"/>
<path d="M13.5503 0H10.1627V5.0625H13.5503V0Z" fill="#393E46"/>
<path d="M13.5503 21.9456H10.1627V26.9919H13.5503V21.9456Z" fill="#393E46"/>
<path d="M13.5503 10.125H10.1627V16.875H13.5503V10.125Z" fill="#393E46"/>
<path d="M43.6557 14.0004H47.0482V27H43.6557V19.7201L41.3592 24.1401H39.6629L37.3925 19.7201V27H34V14.0004H37.3925L40.5241 19.9021L43.6557 14.0004ZM50.0493 27V15.9501L52.0065 14.0001H59.5743L61.5315 15.9501V27H58.139V23.3601H53.4415V27H50.0493ZM53.442 20.5H58.1395V16.86H53.442V20.5ZM64.1414 27V25.44L67.7427 20.5002L64.1414 15.5603V14.0003H67.1424L70.013 18.1603L72.8836 14.0003H75.8847V15.5603L72.2834 20.5002L75.8847 25.44V27H72.8836L70.013 22.84L67.1424 27H64.1414ZM78.4944 27V15.9501L80.4516 14.0001H88.0194L89.9766 15.9501V27H86.584V23.3601H81.8866V27H78.4944ZM81.8871 20.5H86.5845V16.86H81.8871V20.5ZM101.198 16.86H96.3706V19.07H102.764L104.721 21.0199V25.0499L102.764 26.9998H94.9352L92.978 25.0499V23.0999H95.4571L96.501 24.1399H101.329V21.9299H94.935L92.9778 19.98V15.9501L94.935 14.0001H102.764L104.721 15.9501V17.9H102.242L101.198 16.86ZM118.813 16.86H111.115V19.07H117.769V21.9299H111.115V26.9999H107.722V15.95L109.68 14H118.813L118.813 16.86ZM121.162 27V15.9501L123.119 14.0001H130.687L132.644 15.9501V27H129.252V23.3601H124.554V27H121.162ZM124.555 20.5H129.252V16.86H124.555V20.5ZM135.646 25.05V14.0001H139.038V24.1401H146.084V27H137.603L135.646 25.05ZM147.519 16.86V14.0001H158.611V16.86H154.748V27H151.356V16.86H147.519Z" fill="#393E46"/>
</svg>
